<?xml version="1.0" encoding="UTF-8" standalone="no"?><!-- Generator: Gravit.io --><svg xmlns="http://www.w3.org/2000/svg" xmlns:xlink="http://www.w3.org/1999/xlink" style="isolation:isolate" viewBox="0 0 595.276 425.197" width="595.276pt" height="425.197pt"><defs><clipPath id="_clipPath_PpPq9D6yRXTguZik9dm8BMvB5wdiH9o1"><rect width="595.276" height="425.197"/></clipPath></defs><g clip-path="url(#_clipPath_PpPq9D6yRXTguZik9dm8BMvB5wdiH9o1)"><g><clipPath id="_clipPath_aPkJduVxIlvSB71xrMiGTmpPkl3msblT"><path d=" M 0 0 L 0 425.197 L 595.276 425.197 L 595.276 0 L 0 0 Z " fill="rgb(255,255,255)"/></clipPath><g clip-path="url(#_clipPath_aPkJduVxIlvSB71xrMiGTmpPkl3msblT)"><path d=" M 55.344 391.192 C 18.949 365.444 7.715 310.119 31.185 272.213 C 38.577 260.274 49.103 249.359 50.828 235.423 C 49.274 197.991 18.857 172.184 54.849 136.348 C 81.343 107.08 126.682 113.54 157.043 92.299 C 185.509 62.718 215.352 14.009 264.413 14.782 C 357.982 16.8 333.831 45.982 395.45 60.801 C 413.004 65.023 448.487 62.361 487.486 67.821 C 550.604 76.657 543.835 153.596 540.906 197.909 C 543.034 267.942 575.625 253.456 578.744 304.154 C 581.472 348.485 542.866 380.592 511.667 398.533 C 511.663 398.535 55.344 391.192 55.344 391.192 Z " fill="rgb(227,234,255)"/><path d=" M 71.498 235.608 C 71.498 235.608 69.193 250.955 88.786 269.462 C 108.756 288.313 112.642 305.208 112.642 305.208 L 126.332 310.179 C 126.332 310.179 119.2 284.941 102.433 270.555 C 81.423 252.571 71.498 235.608 71.498 235.608 Z " fill="rgb(169,185,235)"/><path d=" M 43.366 254.178 C 43.366 254.178 45.403 265.436 63.486 275.428 C 81.941 285.586 88.63 296.983 88.63 296.983 L 99.868 300.674 C 99.868 300.674 88.449 281.533 73.289 274.02 C 54.343 264.609 43.366 254.178 43.366 254.178 Z " fill="rgb(169,185,235)"/><path d=" M 103.077 251.366 C 103.077 251.366 114.975 254.397 130.92 278.725 C 143.917 298.548 143.208 311.733 151.254 323.849 L 132.493 314.422 C 128.16 305.313 131.889 296.845 120.974 278.298 C 110.761 260.931 103.077 251.366 103.077 251.366 Z " fill="rgb(169,185,235)"/><path d=" M 217.809 299.955 C 217.809 299.955 226.011 309.139 225.673 338.199 C 225.41 361.904 215.636 368.703 215.341 374.258 L 206.778 365.546 C 209.497 355.258 216.381 353.796 217.663 332.313 C 218.845 312.16 217.809 299.955 217.809 299.955 Z " fill="rgb(169,185,235)"/><path d=" M 131.305 259.71 C 131.305 259.71 144.821 276.04 150.786 287.446 C 159.295 303.646 155.99 315.264 163.493 332.434 L 177.152 340.308 C 177.152 340.308 178.535 318.823 167.236 299.256 C 148.277 266.418 131.305 259.71 131.305 259.71 Z " fill="rgb(169,185,235)"/><path d=" M 167.099 256.304 C 169.348 267.982 173.292 279.269 178.807 289.806 C 195.749 321.615 187.605 353.598 187.605 353.598 L 197.108 357.654 C 197.108 357.654 212.094 331.873 197.116 305.559 C 181.256 277.766 167.099 256.304 167.099 256.304 Z " fill="rgb(169,185,235)"/><path d=" M 134.104 316.527 C 134.104 316.527 125.155 316.708 93.944 333.278 C 73.946 343.906 77.083 333.62 59.519 347.122 C 75.113 342.749 84.421 351.823 103.595 343.021 C 118.926 335.971 134.785 330.133 151.028 325.56 L 134.104 316.527 Z " fill="rgb(169,185,235)"/><path d=" M 78.567 361.885 C 78.567 361.885 97.572 373.227 125.874 360.152 C 143.312 352.15 161.947 347.069 181.034 345.113 L 166.718 333.775 C 166.718 333.775 151.36 329.583 123.237 346.004 C 103.913 357.28 78.567 361.885 78.567 361.885 Z " fill="rgb(169,185,235)"/><path d=" M 106.359 382.975 C 106.359 382.975 125.364 394.317 153.667 381.242 C 171.104 373.238 189.739 368.159 208.826 366.203 L 194.51 354.865 C 194.51 354.865 179.152 350.67 151.029 367.094 C 131.705 378.37 106.359 382.975 106.359 382.975 Z " fill="rgb(169,185,235)"/><path d=" M 37.886 316.404 C 37.886 316.404 50.347 321.302 67.922 312.367 C 85.741 303.297 100.923 302.134 100.923 302.134 L 93.622 298.637 C 93.622 298.637 83.915 295.986 66.136 306.359 C 53.907 313.487 37.886 316.404 37.886 316.404 Z " fill="rgb(169,185,235)"/><path d=" M 112.201 308.117 C 112.201 308.117 97.333 312.08 76.987 321.887 C 64.132 328.035 43.45 326.715 43.45 326.715 C 43.45 326.715 64.26 340.591 83.009 330.155 C 104.505 318.181 128.159 312.751 128.159 312.751 L 112.201 308.117 Z " fill="rgb(169,185,235)"/><path d=" M 95.843 300.308 C 95.843 300.308 76.901 286.145 55.532 289.993 C 42.848 292.168 29.891 292.206 17.194 290.112 C 17.194 290.112 35.518 305.194 54.751 299.547 C 72.519 294.383 88.797 301.243 88.797 301.243 L 95.843 300.308 Z " fill="rgb(169,185,235)"/><path d=" M 213.857 375.206 L 216.383 372.821 C 201.668 357.246 144.149 310.319 89.029 296.913 L 88.209 300.291 C 142.564 313.515 199.324 359.836 213.857 375.206 Z " fill="rgb(169,185,235)"/><path d=" M 520.93 236.624 C 520.93 236.624 522.756 252.424 502.043 270.697 C 480.932 289.312 476.363 306.482 476.363 306.482 L 462.166 311.095 C 462.166 311.095 470.351 285.494 488.026 271.341 C 510.175 253.655 520.93 236.624 520.93 236.624 Z " fill="rgb(169,185,235)"/><path d=" M 549.097 256.625 C 549.097 256.625 546.62 268.084 527.75 277.692 C 508.493 287.452 501.243 298.892 501.243 298.892 L 489.604 302.283 C 489.604 302.283 501.966 283.075 517.758 275.908 C 537.491 266.928 549.097 256.625 549.097 256.625 Z " fill="rgb(169,185,235)"/><path d=" M 488.035 251.663 C 488.035 251.663 475.742 254.357 458.562 278.719 C 444.558 298.571 444.826 312.099 436.163 324.232 L 455.707 315.228 C 460.463 306.048 456.938 297.244 468.765 278.627 C 479.83 261.194 488.035 251.663 488.035 251.663 Z " fill="rgb(169,185,235)"/><path d=" M 368.822 297.438 C 368.822 297.438 360.101 306.558 359.434 336.335 C 358.879 360.626 368.654 367.929 368.763 373.631 L 377.836 365.004 C 375.411 354.372 368.412 352.635 367.846 330.586 C 367.336 309.903 368.822 297.438 368.822 297.438 Z " fill="rgb(169,185,235)"/><path d=" M 458.83 259.23 C 458.83 259.23 444.416 275.483 437.91 286.959 C 428.63 303.255 431.611 315.271 423.328 332.597 L 409.061 340.185 C 409.061 340.185 408.393 318.13 420.649 298.482 C 441.212 265.506 458.83 259.23 458.83 259.23 Z " fill="rgb(169,185,235)"/><path d=" M 422.286 254.493 C 419.576 266.377 415.143 277.8 409.127 288.4 C 390.664 320.39 397.893 353.434 397.893 353.434 L 388.018 357.259 C 388.018 357.259 373.565 330.329 389.825 303.897 C 407.037 275.983 422.286 254.493 422.286 254.493 Z " fill="rgb(169,185,235)"/><path d=" M 453.985 317.327 C 453.985 317.327 463.144 317.826 494.536 335.886 C 514.65 347.467 511.795 336.822 529.315 351.264 C 513.493 346.24 503.644 355.212 484.31 345.528 C 468.854 337.772 452.811 331.241 436.335 325.99 L 453.985 317.327 Z " fill="rgb(169,185,235)"/><path d=" M 509.29 365.722 C 509.29 365.722 489.427 376.678 460.894 362.3 C 443.31 353.494 424.4 347.641 404.919 344.973 L 419.978 333.858 C 419.978 333.858 435.854 330.097 464.087 347.898 C 483.489 360.123 509.29 365.722 509.29 365.722 Z " fill="rgb(169,185,235)"/><path d=" M 480.088 386.357 C 480.088 386.357 460.225 397.31 431.692 382.932 C 414.108 374.129 395.197 368.274 375.717 365.606 L 390.775 354.491 C 390.775 354.491 406.652 350.732 434.885 368.531 C 454.287 380.757 480.088 386.357 480.088 386.357 Z " fill="rgb(169,185,235)"/><path d=" M 552.543 320.554 C 552.543 320.554 539.609 325.137 521.918 315.373 C 503.984 305.461 488.472 303.739 488.472 303.739 L 496.073 300.412 C 496.073 300.412 506.108 298.035 523.957 309.282 C 536.235 317.008 552.543 320.554 552.543 320.554 Z " fill="rgb(169,185,235)"/><path d=" M 476.712 309.477 C 476.712 309.477 491.804 314.053 512.301 324.808 C 525.254 331.551 546.484 330.922 546.484 330.922 C 546.484 330.922 524.687 344.412 505.846 333.067 C 484.244 320.054 460.205 313.666 460.205 313.666 L 476.712 309.477 Z " fill="rgb(169,185,235)"/><path d=" M 493.739 302.047 C 493.739 302.047 513.636 288.201 535.389 292.888 C 548.304 295.556 561.577 296.048 574.654 294.343 C 574.654 294.343 555.358 309.154 535.856 302.7 C 517.837 296.792 500.924 303.25 500.924 303.25 L 493.739 302.047 Z " fill="rgb(169,185,235)"/><path d=" M 370.249 374.654 L 367.746 372.122 C 383.36 356.683 443.912 310.619 500.837 298.807 L 501.56 302.296 C 445.423 313.946 385.671 359.415 370.249 374.654 Z " fill="rgb(169,185,235)"/><path d=" M 527.265 391.513 C 527.265 406.59 421.629 418.813 291.322 418.813 C 161.014 418.813 55.378 406.59 55.378 391.513 C 55.378 376.435 161.014 364.213 291.322 364.213 C 421.629 364.213 527.265 376.435 527.265 391.513 Z " fill="rgb(149,166,219)"/><path d=" M 475.802 174.065 L 410.094 144.427 C 405.921 142.544 404.062 137.635 405.946 133.461 L 440.642 56.539 C 442.524 52.365 447.435 50.508 451.608 52.39 L 517.316 82.028 C 521.489 83.911 523.347 88.82 521.464 92.994 L 486.768 169.916 C 484.886 174.09 479.975 175.947 475.802 174.065 Z " fill="rgb(205,216,250)"/><path d=" M 436.479 141.202 L 430.008 138.284 L 455.909 80.862 L 462.38 83.78 L 436.479 141.202 Z " fill="rgb(255,255,255)"/><path d=" M 446.142 145.561 L 439.673 142.643 L 465.574 85.221 L 472.043 88.139 L 446.142 145.561 Z " fill="rgb(255,255,255)"/><path d=" M 455.807 149.921 L 449.337 147.002 L 475.238 89.58 L 481.708 92.498 L 455.807 149.921 Z " fill="rgb(255,255,255)"/><path d=" M 465.471 154.28 L 459 151.361 L 484.901 93.939 L 491.372 96.857 L 465.471 154.28 Z " fill="rgb(255,255,255)"/><path d=" M 475.136 158.639 L 468.665 155.72 L 494.566 98.298 L 501.035 101.216 L 475.136 158.639 Z " fill="rgb(255,255,255)"/><path d=" M 463.322 81.691 L 456.851 78.772 L 458.22 75.74 L 464.689 78.658 L 463.322 81.691 Z " fill="rgb(255,255,255)"/><path d=" M 451.453 82.502 L 444.981 79.583 L 446.35 76.55 L 452.82 79.469 L 451.453 82.502 Z " fill="rgb(255,255,255)"/><path d=" M 447.135 92.072 L 440.666 89.154 L 442.035 86.12 L 448.504 89.039 L 447.135 92.072 Z " fill="rgb(255,255,255)"/><path d=" M 442.819 101.642 L 436.35 98.724 L 437.717 95.691 L 444.186 98.609 L 442.819 101.642 Z " fill="rgb(255,255,255)"/><path d=" M 438.501 111.213 L 432.032 108.294 L 433.401 105.261 L 439.87 108.18 L 438.501 111.213 Z " fill="rgb(255,255,255)"/><path d=" M 438.501 111.213 L 432.032 108.294 L 433.401 105.261 L 439.87 108.18 L 438.501 111.213 Z " fill="rgb(255,255,255)"/><path d=" M 434.186 120.783 L 427.716 117.865 L 429.083 114.832 L 435.553 117.75 L 434.186 120.783 Z " fill="rgb(255,255,255)"/><path d=" M 429.868 130.353 L 423.398 127.435 L 424.767 124.402 L 431.237 127.32 L 429.868 130.353 Z " fill="rgb(255,255,255)"/><path d=" M 472.987 86.05 L 466.515 83.132 L 467.884 80.099 L 474.354 83.017 L 472.987 86.05 Z " fill="rgb(255,255,255)"/><path d=" M 482.649 90.409 L 476.18 87.491 L 477.547 84.458 L 484.019 87.376 L 482.649 90.409 Z " fill="rgb(255,255,255)"/><path d=" M 492.314 94.768 L 485.845 91.85 L 487.212 88.817 L 493.681 91.735 L 492.314 94.768 Z " fill="rgb(255,255,255)"/><path d=" M 501.979 99.127 L 495.507 96.209 L 496.877 93.176 L 503.346 96.094 L 501.979 99.127 Z " fill="rgb(255,255,255)"/><path d=" M 505.965 90.621 L 455.613 67.909 C 453.657 67.027 452.788 64.727 453.67 62.772 L 453.67 62.772 C 454.55 60.817 456.851 59.946 458.807 60.828 L 509.158 83.54 C 511.114 84.422 511.984 86.722 511.102 88.678 L 511.102 88.678 C 510.219 90.633 507.921 91.503 505.965 90.621 Z " fill="rgb(255,255,255)"/><path d=" M 306.142 54.721 C 305.572 54.721 305.085 54.288 305.03 53.709 C 304.97 53.095 305.423 52.549 306.038 52.49 C 307.632 52.338 309.269 52.246 310.906 52.217 C 311.523 52.207 312.033 52.698 312.043 53.315 C 312.054 53.933 311.563 54.442 310.946 54.453 C 309.367 54.481 307.787 54.57 306.248 54.716 C 306.212 54.72 306.178 54.721 306.142 54.721 Z  M 320.49 54.972 C 320.445 54.972 320.399 54.969 320.352 54.963 C 318.785 54.769 317.203 54.627 315.656 54.542 C 315.039 54.508 314.567 53.981 314.601 53.365 C 314.635 52.748 315.16 52.276 315.777 52.31 C 317.378 52.397 319.008 52.543 320.626 52.744 C 321.238 52.82 321.674 53.379 321.6 53.991 C 321.53 54.557 321.047 54.972 320.49 54.972 Z  M 296.721 56.423 C 296.23 56.423 295.78 56.096 295.644 55.599 C 295.482 55.003 295.833 54.388 296.428 54.226 C 297.978 53.803 299.583 53.442 301.199 53.152 C 301.807 53.042 302.387 53.447 302.498 54.054 C 302.606 54.662 302.202 55.243 301.594 55.353 C 300.042 55.631 298.503 55.978 297.017 56.383 C 296.919 56.41 296.819 56.423 296.721 56.423 Z  M 329.897 56.765 C 329.806 56.765 329.713 56.754 329.619 56.73 C 328.093 56.337 326.543 55.99 325.012 55.698 C 324.406 55.582 324.009 54.996 324.123 54.39 C 324.24 53.783 324.825 53.386 325.431 53.501 C 327.008 53.803 328.605 54.16 330.176 54.564 C 330.773 54.718 331.135 55.327 330.982 55.925 C 330.85 56.43 330.397 56.765 329.897 56.765 Z  M 339.014 59.708 C 338.878 59.708 338.739 59.683 338.608 59.631 C 337.143 59.059 335.644 58.526 334.156 58.045 C 333.569 57.855 333.246 57.224 333.435 56.637 C 333.626 56.049 334.256 55.727 334.845 55.917 C 336.375 56.411 337.915 56.96 339.42 57.548 C 339.996 57.773 340.279 58.421 340.055 58.996 C 339.883 59.438 339.46 59.708 339.014 59.708 Z  M 287.763 59.784 C 287.337 59.784 286.931 59.541 286.744 59.13 C 286.489 58.568 286.736 57.905 287.299 57.649 C 287.801 57.419 288.303 57.191 288.802 56.964 C 289.767 56.526 290.767 56.112 291.77 55.733 C 292.348 55.515 292.995 55.807 293.212 56.384 C 293.43 56.962 293.139 57.607 292.561 57.825 C 291.602 58.187 290.648 58.582 289.725 59.001 C 289.227 59.226 288.728 59.454 288.226 59.683 C 288.075 59.752 287.918 59.784 287.763 59.784 Z  M 207.669 61.707 C 207.107 61.707 206.624 61.286 206.559 60.714 C 206.49 60.101 206.932 59.548 207.545 59.478 C 209.129 59.3 210.84 59.293 212.56 59.458 C 213.175 59.517 213.625 60.062 213.566 60.677 C 213.506 61.292 212.962 61.742 212.346 61.684 C 210.78 61.534 209.226 61.539 207.795 61.701 C 207.753 61.705 207.711 61.707 207.669 61.707 Z  M 347.713 63.714 C 347.537 63.714 347.356 63.672 347.188 63.582 C 345.806 62.844 344.382 62.136 342.955 61.48 C 342.394 61.221 342.15 60.557 342.407 59.997 C 342.666 59.436 343.329 59.19 343.891 59.448 C 345.358 60.123 346.82 60.851 348.24 61.61 C 348.787 61.901 348.991 62.578 348.7 63.123 C 348.5 63.5 348.113 63.714 347.713 63.714 Z  M 279.048 63.783 C 278.625 63.783 278.219 63.54 278.032 63.13 C 277.775 62.569 278.021 61.905 278.583 61.648 C 279.59 61.185 280.592 60.724 281.589 60.267 L 282.937 59.647 C 283.498 59.389 284.161 59.635 284.421 60.196 C 284.678 60.757 284.431 61.421 283.87 61.678 L 282.522 62.298 C 281.525 62.756 280.524 63.217 279.514 63.68 C 279.363 63.75 279.206 63.783 279.048 63.783 Z  M 221.47 64.57 C 221.234 64.57 220.994 64.495 220.792 64.34 C 220.016 63.747 219.191 63.295 218.341 62.999 C 217.852 62.829 217.352 62.672 216.853 62.531 C 216.257 62.364 215.913 61.746 216.079 61.151 C 216.247 60.557 216.865 60.211 217.458 60.379 C 218.001 60.531 218.545 60.703 219.076 60.887 C 220.152 61.262 221.185 61.826 222.15 62.564 C 222.642 62.939 222.735 63.641 222.359 64.131 C 222.14 64.419 221.806 64.57 221.47 64.57 Z  M 199.608 66.084 C 199.462 66.084 199.314 66.055 199.171 65.994 C 198.603 65.752 198.338 65.095 198.581 64.527 C 199.241 62.979 200.625 61.683 202.585 60.78 C 203.146 60.521 203.81 60.766 204.068 61.327 C 204.327 61.888 204.082 62.552 203.521 62.811 C 202.074 63.478 201.076 64.375 200.638 65.404 C 200.457 65.829 200.043 66.084 199.608 66.084 Z  M 270.317 67.743 C 269.889 67.743 269.481 67.496 269.296 67.079 C 269.043 66.516 269.298 65.855 269.862 65.603 C 271.225 64.996 272.651 64.353 274.224 63.638 C 274.788 63.382 275.451 63.631 275.706 64.193 C 275.961 64.756 275.713 65.418 275.149 65.674 C 273.572 66.391 272.139 67.036 270.772 67.645 C 270.625 67.711 270.47 67.743 270.317 67.743 Z  M 355.875 68.727 C 355.654 68.727 355.431 68.662 355.235 68.525 C 353.955 67.628 352.626 66.756 351.287 65.932 C 350.76 65.609 350.596 64.921 350.919 64.394 C 351.24 63.868 351.929 63.704 352.456 64.027 C 353.836 64.874 355.203 65.771 356.519 66.694 C 357.023 67.048 357.146 67.746 356.791 68.251 C 356.574 68.561 356.228 68.727 355.875 68.727 Z  M 261.522 71.556 C 261.084 71.556 260.669 71.297 260.488 70.869 C 260.25 70.299 260.518 69.644 261.088 69.406 C 262.489 68.82 263.966 68.189 265.484 67.531 C 266.05 67.285 266.709 67.544 266.956 68.111 C 267.2 68.677 266.941 69.336 266.375 69.582 C 264.849 70.244 263.361 70.879 261.953 71.469 C 261.811 71.528 261.664 71.556 261.522 71.556 Z  M 226.753 72.412 C 226.294 72.412 225.865 72.128 225.701 71.672 C 225.161 70.166 224.495 68.797 223.722 67.602 C 223.388 67.083 223.534 66.391 224.053 66.056 C 224.572 65.72 225.265 65.869 225.601 66.387 C 226.466 67.726 227.208 69.25 227.806 70.916 C 228.014 71.498 227.712 72.138 227.132 72.346 C 227.006 72.391 226.879 72.412 226.753 72.412 Z  M 202.898 74.483 C 202.615 74.483 202.332 74.377 202.115 74.163 C 200.706 72.779 199.656 71.405 198.996 70.081 C 198.72 69.529 198.944 68.857 199.496 68.581 C 200.049 68.305 200.72 68.53 200.996 69.082 C 201.546 70.185 202.45 71.357 203.682 72.568 C 204.122 73.001 204.128 73.709 203.696 74.149 C 203.477 74.372 203.187 74.483 202.898 74.483 Z  M 363.354 74.71 C 363.086 74.71 362.816 74.613 362.601 74.418 C 361.451 73.369 360.244 72.339 359.013 71.354 C 358.53 70.969 358.452 70.265 358.839 69.783 C 359.223 69.301 359.927 69.222 360.41 69.608 C 361.679 70.622 362.923 71.685 364.109 72.765 C 364.564 73.181 364.598 73.889 364.181 74.345 C 363.96 74.587 363.658 74.71 363.354 74.71 Z  M 252.614 75.102 C 252.161 75.102 251.736 74.825 251.568 74.376 C 251.351 73.798 251.642 73.153 252.22 72.937 C 253.649 72.401 255.146 71.822 256.67 71.214 C 257.242 70.985 257.893 71.264 258.122 71.838 C 258.352 72.412 258.071 73.062 257.497 73.291 C 255.96 73.904 254.448 74.49 253.007 75.03 C 252.877 75.079 252.743 75.102 252.614 75.102 Z  M 243.551 78.222 C 243.072 78.222 242.63 77.914 242.483 77.435 C 242.301 76.845 242.63 76.219 243.219 76.036 C 244.673 75.586 246.193 75.087 247.739 74.553 C 248.323 74.351 248.959 74.661 249.161 75.245 C 249.363 75.828 249.053 76.465 248.47 76.666 C 246.901 77.208 245.358 77.715 243.882 78.172 C 243.772 78.206 243.659 78.222 243.551 78.222 Z  M 210.711 79.947 C 210.561 79.947 210.409 79.917 210.263 79.853 C 208.97 79.288 207.744 78.605 206.619 77.823 C 206.381 77.658 206.15 77.494 205.924 77.331 C 205.424 76.969 205.311 76.27 205.673 75.77 C 206.034 75.269 206.733 75.157 207.234 75.519 C 207.449 75.674 207.669 75.83 207.895 75.987 C 208.9 76.686 209.999 77.297 211.159 77.804 C 211.725 78.051 211.983 78.711 211.735 79.276 C 211.552 79.696 211.141 79.947 210.711 79.947 Z  M 234.283 80.669 C 233.767 80.669 233.303 80.309 233.193 79.783 C 233.063 79.179 233.45 78.585 234.054 78.457 C 235.529 78.144 237.077 77.773 238.659 77.352 C 239.254 77.193 239.866 77.549 240.026 78.145 C 240.185 78.742 239.83 79.354 239.233 79.513 C 237.615 79.943 236.029 80.324 234.517 80.645 C 234.439 80.661 234.362 80.669 234.283 80.669 Z  M 369.977 81.627 C 369.656 81.627 369.337 81.49 369.116 81.224 C 368.125 80.03 367.068 78.848 365.978 77.709 C 365.55 77.264 365.565 76.556 366.012 76.129 C 366.458 75.702 367.166 75.717 367.593 76.163 C 368.72 77.339 369.811 78.561 370.835 79.795 C 371.231 80.269 371.165 80.974 370.691 81.369 C 370.483 81.543 370.23 81.627 369.977 81.627 Z  M 224.804 82.005 C 224.215 82.005 223.722 81.546 223.688 80.951 C 223.651 80.335 224.123 79.806 224.74 79.771 C 225.539 79.725 226.366 79.657 227.21 79.567 C 227.159 78.405 227.038 77.247 226.847 76.113 C 226.745 75.504 227.155 74.928 227.765 74.826 C 228.373 74.724 228.952 75.135 229.054 75.744 C 229.247 76.908 229.377 78.095 229.436 79.287 C 230.036 79.215 230.589 79.635 230.676 80.238 C 230.765 80.849 230.34 81.416 229.73 81.504 C 229.489 81.539 229.251 81.571 229.013 81.603 C 228.83 81.736 228.605 81.816 228.363 81.817 C 228.212 81.818 228.069 81.789 227.94 81.736 C 226.887 81.857 225.858 81.946 224.867 82.003 C 224.846 82.004 224.825 82.005 224.804 82.005 Z  M 220.016 82.019 C 219.995 82.019 219.973 82.018 219.952 82.017 C 218.228 81.918 216.574 81.7 215.035 81.371 C 214.431 81.241 214.046 80.647 214.176 80.043 C 214.306 79.439 214.901 79.055 215.505 79.184 C 216.931 79.49 218.47 79.692 220.08 79.784 C 220.696 79.82 221.166 80.348 221.132 80.965 C 221.098 81.559 220.605 82.019 220.016 82.019 Z  M 375.53 89.426 C 375.149 89.426 374.779 89.233 374.571 88.884 C 373.771 87.556 372.902 86.234 371.99 84.952 C 371.631 84.449 371.747 83.751 372.251 83.393 C 372.753 83.034 373.453 83.151 373.81 83.654 C 374.758 84.983 375.657 86.354 376.486 87.731 C 376.805 88.26 376.633 88.947 376.104 89.265 C 375.923 89.374 375.725 89.426 375.53 89.426 Z  M 226.811 91.229 C 226.685 91.229 226.558 91.208 226.432 91.163 C 225.852 90.955 225.55 90.315 225.758 89.734 C 226.258 88.334 226.638 86.841 226.887 85.295 C 226.985 84.685 227.559 84.27 228.169 84.369 C 228.779 84.467 229.194 85.04 229.096 85.65 C 228.826 87.332 228.409 88.959 227.863 90.488 C 227.699 90.945 227.268 91.229 226.811 91.229 Z  M 221.708 99.233 C 221.411 99.233 221.115 99.115 220.894 98.881 C 220.471 98.432 220.492 97.724 220.941 97.301 C 222.01 96.292 222.967 95.121 223.785 93.822 C 224.115 93.299 224.804 93.142 225.327 93.471 C 225.85 93.8 226.007 94.49 225.677 95.013 C 224.759 96.472 223.683 97.789 222.474 98.928 C 222.259 99.132 221.983 99.233 221.708 99.233 Z  M 213.36 103.7 C 212.858 103.7 212.401 103.359 212.275 102.849 C 212.128 102.25 212.494 101.644 213.094 101.496 C 214.595 101.127 216.011 100.592 217.303 99.907 C 217.85 99.617 218.526 99.825 218.815 100.37 C 219.104 100.916 218.898 101.593 218.351 101.882 C 216.897 102.654 215.307 103.254 213.627 103.668 C 213.538 103.69 213.449 103.7 213.36 103.7 Z  M 207.491 104.374 C 206.797 104.374 206.081 104.35 205.363 104.302 C 204.837 104.266 204.311 104.239 203.799 104.221 C 203.182 104.198 202.7 103.68 202.722 103.063 C 202.745 102.446 203.263 101.963 203.88 101.986 C 204.415 102.005 204.964 102.034 205.512 102.071 C 206.561 102.141 207.594 102.157 208.582 102.117 C 209.2 102.091 209.719 102.571 209.744 103.188 C 209.769 103.805 209.29 104.326 208.673 104.351 C 208.285 104.366 207.887 104.374 207.491 104.374 Z  M 194.321 104.955 C 193.805 104.955 193.341 104.596 193.229 104.071 C 193.1 103.468 193.484 102.873 194.088 102.744 C 195.626 102.414 197.271 102.184 198.976 102.062 C 199.592 102.018 200.127 102.481 200.172 103.097 C 200.216 103.713 199.752 104.248 199.136 104.292 C 197.535 104.407 195.994 104.622 194.557 104.93 C 194.478 104.947 194.399 104.955 194.321 104.955 Z  M 185.556 108.623 C 185.202 108.623 184.854 108.456 184.637 108.143 C 184.284 107.636 184.41 106.939 184.917 106.587 C 186.258 105.655 187.742 104.852 189.33 104.201 C 189.901 103.966 190.554 104.239 190.789 104.81 C 191.023 105.381 190.75 106.034 190.179 106.269 C 188.742 106.859 187.401 107.584 186.193 108.423 C 185.998 108.558 185.776 108.623 185.556 108.623 Z  M 179.263 115.724 C 179.085 115.724 178.905 115.682 178.737 115.592 C 178.193 115.301 177.987 114.624 178.278 114.079 C 179.081 112.575 180.046 111.181 181.147 109.935 C 181.556 109.472 182.263 109.429 182.726 109.838 C 183.188 110.247 183.232 110.954 182.823 111.416 C 181.837 112.531 180.971 113.781 180.25 115.132 C 180.049 115.509 179.662 115.724 179.263 115.724 Z  M 176.645 124.892 C 176.626 124.892 176.606 124.891 176.587 124.89 C 175.97 124.858 175.496 124.332 175.528 123.716 C 175.565 123.008 175.723 121.105 176.401 118.74 C 176.571 118.146 177.19 117.803 177.783 117.973 C 178.377 118.142 178.72 118.762 178.551 119.355 C 177.936 121.499 177.794 123.2 177.761 123.832 C 177.73 124.429 177.236 124.892 176.645 124.892 Z " fill="rgb(255,255,255)"/><path d=" M 376.482 81.728 L 372.861 87.658 L 404.028 108.922 L 376.482 81.728 Z " fill="rgb(189,205,255)"/><path d=" M 369.647 94.775 L 371.535 101.576 L 402.642 107.942 L 369.647 94.775 Z " fill="rgb(189,205,255)"/><path d=" M 404.028 108.922 L 351.468 91.007 L 369.647 84.614 L 404.028 108.922 Z " fill="rgb(255,255,255)"/><path d=" M 376.482 81.728 L 404.028 108.922 L 387.907 76.905 L 376.482 81.728 Z " fill="rgb(255,255,255)"/><path d=" M 108.759 156.158 C 108.67 156.158 108.58 156.148 108.49 156.128 C 106.857 155.774 105.138 155.621 103.412 155.674 C 102.713 155.695 102.131 155.146 102.11 154.448 C 102.088 153.75 102.637 153.167 103.336 153.145 C 105.267 153.087 107.194 153.258 109.027 153.657 C 109.71 153.805 110.143 154.479 109.994 155.161 C 109.865 155.753 109.341 156.158 108.759 156.158 Z  M 92.884 158.147 C 92.394 158.147 91.928 157.86 91.722 157.382 C 91.446 156.74 91.742 155.996 92.383 155.72 C 94.161 154.954 95.956 154.349 97.717 153.922 C 98.396 153.758 99.08 154.174 99.244 154.854 C 99.409 155.532 98.992 156.216 98.313 156.381 C 96.69 156.774 95.031 157.333 93.384 158.043 C 93.221 158.113 93.051 158.147 92.884 158.147 Z  M 118.409 160.893 C 118.163 160.893 117.915 160.821 117.696 160.671 C 117.136 160.289 116.576 159.897 116.03 159.509 C 115.142 158.876 114.216 158.313 113.276 157.836 C 112.654 157.52 112.405 156.759 112.721 156.136 C 113.037 155.513 113.799 155.265 114.422 155.581 C 115.473 156.114 116.508 156.743 117.498 157.449 C 118.031 157.828 118.577 158.21 119.124 158.584 C 119.701 158.978 119.849 159.765 119.454 160.341 C 119.209 160.7 118.813 160.893 118.409 160.893 Z  M 83.636 163.746 C 83.264 163.746 82.896 163.582 82.646 163.268 C 82.211 162.722 82.301 161.926 82.848 161.491 C 84.313 160.325 85.851 159.25 87.417 158.297 C 88.013 157.933 88.792 158.122 89.155 158.719 C 89.518 159.316 89.329 160.094 88.732 160.457 C 87.256 161.356 85.806 162.37 84.423 163.471 C 84.19 163.656 83.912 163.746 83.636 163.746 Z  M 127.655 166.551 C 127.451 166.551 127.245 166.502 127.053 166.397 C 125.471 165.538 123.873 164.614 122.302 163.653 C 121.706 163.288 121.519 162.509 121.884 161.914 C 122.248 161.318 123.027 161.131 123.623 161.495 C 125.157 162.435 126.717 163.336 128.26 164.175 C 128.874 164.508 129.101 165.276 128.768 165.89 C 128.538 166.312 128.104 166.551 127.655 166.551 Z  M 137.469 171.153 C 137.316 171.153 137.161 171.125 137.01 171.066 C 135.364 170.424 133.662 169.69 131.952 168.885 C 131.321 168.587 131.05 167.833 131.347 167.201 C 131.645 166.57 132.399 166.299 133.03 166.596 C 134.688 167.377 136.336 168.088 137.929 168.709 C 138.58 168.963 138.902 169.696 138.648 170.347 C 138.453 170.847 137.975 171.153 137.469 171.153 Z  M 76.119 171.518 C 75.864 171.518 75.608 171.442 75.385 171.284 C 74.817 170.878 74.684 170.088 75.09 169.52 C 76.114 168.081 77.331 166.638 78.706 165.228 C 79.194 164.728 79.995 164.718 80.495 165.206 C 80.995 165.694 81.005 166.495 80.517 166.995 C 79.232 168.312 78.099 169.655 77.149 170.988 C 76.903 171.334 76.513 171.518 76.119 171.518 Z  M 163.561 171.799 C 163.156 171.799 162.759 171.605 162.514 171.245 C 162.121 170.667 162.271 169.881 162.849 169.488 C 164.043 168.676 165.113 167.659 166.026 166.463 C 166.451 165.908 167.244 165.802 167.799 166.226 C 168.354 166.651 168.46 167.444 168.036 167.999 C 166.957 169.411 165.69 170.616 164.271 171.58 C 164.053 171.728 163.806 171.799 163.561 171.799 Z  M 147.874 174.145 C 147.804 174.145 147.733 174.139 147.662 174.127 C 145.936 173.835 144.112 173.408 142.241 172.86 C 141.571 172.664 141.187 171.961 141.383 171.291 C 141.579 170.62 142.282 170.236 142.952 170.433 C 144.729 170.953 146.455 171.357 148.084 171.633 C 148.773 171.75 149.237 172.403 149.12 173.091 C 149.015 173.708 148.48 174.145 147.874 174.145 Z  M 153.266 174.626 C 152.567 174.626 152.001 174.06 152.001 173.363 C 152 172.664 152.566 172.097 153.265 172.097 C 155.084 172.095 156.784 171.894 158.318 171.499 C 158.995 171.325 159.684 171.732 159.858 172.409 C 160.033 173.085 159.625 173.775 158.949 173.949 C 157.21 174.397 155.298 174.625 153.267 174.626 C 153.266 174.626 153.266 174.626 153.266 174.626 Z " fill="rgb(255,255,255)"/><path d=" M 74.898 166.401 L 76.723 172.155 L 46.019 183.629 L 74.898 166.401 Z " fill="rgb(189,205,255)"/><path d=" M 77.957 178.826 L 74.955 184.171 L 47.391 183.09 L 77.957 178.826 Z " fill="rgb(189,205,255)"/><path d=" M 46.019 183.629 L 94.075 179.418 L 80.065 170.254 L 46.019 183.629 Z " fill="rgb(255,255,255)"/><path d=" M 74.898 166.401 L 46.019 183.629 L 66.261 159.963 L 74.898 166.401 Z " fill="rgb(255,255,255)"/><path d=" M 149.367 106.964 L 136.859 130.106 C 136.382 130.988 135.282 131.316 134.402 130.84 L 94.182 109.101 C 93.301 108.625 92.973 107.525 93.45 106.643 L 105.959 83.501 C 106.435 82.619 107.535 82.291 108.416 82.767 L 148.635 104.506 C 149.516 104.982 149.844 106.082 149.367 106.964 Z " fill="rgb(205,216,250)"/><path d=" M 149.367 106.964 L 148.676 108.243 L 123.237 111.5 C 120.738 111.869 118.289 110.572 117.19 108.298 L 105.564 84.232 L 105.959 83.501 C 106.435 82.62 107.535 82.291 108.417 82.768 L 148.634 104.506 C 149.515 104.982 149.844 106.083 149.367 106.964 Z " fill="rgb(255,255,255)"/><path d=" M 519.031 176.942 L 528.951 201.307 C 529.328 202.236 528.883 203.293 527.956 203.671 L 485.611 220.911 C 484.684 221.287 483.627 220.841 483.249 219.914 L 473.329 195.549 C 472.951 194.62 473.397 193.563 474.324 193.185 L 516.669 175.946 C 517.596 175.568 518.653 176.014 519.031 176.942 Z " fill="rgb(205,216,250)"/><path d=" M 519.031 176.942 L 519.58 178.289 L 505.927 200.001 C 504.626 202.165 502.068 203.232 499.613 202.635 L 473.644 196.318 L 473.329 195.549 C 472.953 194.621 473.397 193.563 474.326 193.185 L 516.667 175.946 C 517.594 175.569 518.653 176.015 519.031 176.942 Z " fill="rgb(255,255,255)"/><path d=" M 423.594 192.103 C 440.534 176.283 441.79 150.098 426.4 133.618 C 411.01 117.138 384.801 116.604 367.861 132.424 L 423.594 192.103 Z " fill="rgb(253,198,48)"/><path d=" M 399.632 187.951 L 370.948 157.72 L 381.869 147.357 L 410.553 177.588 L 399.632 187.951 Z " fill="rgb(253,164,48)"/><path d=" M 162.037 191.952 C 145.096 176.132 143.839 149.947 159.229 133.468 C 174.619 116.988 200.828 116.453 217.769 132.274 L 162.037 191.952 Z " fill="rgb(253,198,48)"/><path d=" M 185.998 187.8 L 214.682 157.569 L 203.76 147.206 L 175.076 177.437 L 185.998 187.8 Z " fill="rgb(253,164,48)"/><path d=" M 213.215 177.921 C 169.385 221.713 169.385 292.712 213.215 336.505 C 257.044 380.298 328.107 380.298 371.937 336.505 C 415.766 292.712 415.766 221.713 371.937 177.921 C 328.107 134.128 257.044 134.128 213.215 177.921 Z " fill="rgb(255,255,255)"/><path d=" M 292.576 135.993 C 289.104 135.993 286.289 138.805 286.289 142.274 L 286.289 157.291 C 286.289 160.759 289.104 163.571 292.576 163.571 C 296.048 163.571 298.86 160.759 298.86 157.291 L 298.86 142.274 C 298.86 138.805 296.048 135.993 292.576 135.993 Z " fill="rgb(230,37,82)"/><path d=" M 232.376 153.335 C 229.37 155.07 228.339 158.912 230.074 161.917 L 237.583 174.922 C 239.318 177.925 243.159 178.953 246.166 177.217 C 249.172 175.482 250.203 171.64 248.47 168.637 L 240.961 155.632 C 239.226 152.627 235.383 151.599 232.376 153.335 Z " fill="rgb(230,37,82)"/><path d=" M 188.496 197.726 C 186.76 200.732 187.788 204.575 190.793 206.31 L 203.798 213.819 C 206.801 215.551 210.643 214.52 212.379 211.515 C 214.114 208.508 213.085 204.666 210.083 202.932 L 197.078 195.423 C 194.074 193.689 190.232 194.72 188.496 197.726 Z " fill="rgb(230,37,82)"/><path d=" M 172.689 258.111 C 172.689 261.581 175.501 264.396 178.97 264.396 L 193.987 264.396 C 197.455 264.396 200.267 261.581 200.267 258.111 C 200.267 254.64 197.455 251.825 193.987 251.825 L 178.97 251.825 C 175.501 251.825 172.689 254.64 172.689 258.111 Z " fill="rgb(230,37,82)"/><path d=" M 189.192 318.309 C 190.928 321.315 194.77 322.346 197.775 320.611 L 210.78 313.102 C 213.783 311.37 214.812 307.526 213.075 304.52 C 211.34 301.513 207.498 300.482 204.494 302.217 L 191.489 309.724 C 188.485 311.459 187.457 315.303 189.192 318.309 Z " fill="rgb(230,37,82)"/><path d=" M 233.584 362.189 C 236.59 363.926 240.432 362.897 242.167 359.893 L 249.676 346.888 C 251.41 343.884 250.379 340.043 247.373 338.308 C 244.367 336.571 240.523 337.6 238.791 340.602 L 231.282 353.609 C 229.547 356.613 230.578 360.454 233.584 362.189 Z " fill="rgb(230,37,82)"/><path d=" M 293.968 377.998 C 297.44 377.998 300.253 375.185 300.253 371.716 L 300.253 356.7 C 300.253 353.23 297.44 350.42 293.968 350.42 C 290.497 350.42 287.684 353.23 287.684 356.7 L 287.684 371.716 C 287.684 375.185 290.497 377.998 293.968 377.998 Z " fill="rgb(230,37,82)"/><path d=" M 354.166 361.494 C 357.172 359.757 358.203 355.915 356.47 352.911 L 348.961 339.907 C 347.226 336.903 343.385 335.876 340.379 337.611 C 337.37 339.347 336.341 343.189 338.074 346.191 L 345.583 359.196 C 347.318 362.202 351.159 363.229 354.166 361.494 Z " fill="rgb(230,37,82)"/><path d=" M 398.048 317.101 C 399.783 314.097 398.756 310.253 395.752 308.519 L 382.745 301.01 C 379.743 299.277 375.902 300.308 374.165 303.314 C 372.43 306.32 373.457 310.162 376.461 311.897 L 389.465 319.406 C 392.469 321.138 396.311 320.109 398.048 317.101 Z " fill="rgb(230,37,82)"/><path d=" M 413.855 255.879 C 413.855 252.407 411.042 249.595 407.575 249.595 L 392.557 249.595 C 389.089 249.595 386.276 252.407 386.276 255.879 C 386.276 259.351 389.089 262.164 392.557 262.164 L 407.575 262.164 C 411.042 262.164 413.855 259.351 413.855 255.879 Z " fill="rgb(230,37,82)"/><path d=" M 397.351 195.681 C 395.616 192.675 391.774 191.644 388.77 193.379 L 375.763 200.887 C 372.762 202.621 371.733 206.464 373.47 209.47 C 375.204 212.476 379.046 213.506 382.05 211.774 L 395.055 204.265 C 398.059 202.53 399.088 198.688 397.351 195.681 Z " fill="rgb(230,37,82)"/><path d=" M 352.96 151.8 C 349.954 150.064 346.11 151.092 344.375 154.097 L 336.869 167.102 C 335.134 170.105 336.165 173.947 339.171 175.683 C 342.177 177.418 346.021 176.39 347.754 173.387 L 355.263 160.382 C 356.997 157.377 355.966 153.536 352.96 151.8 Z " fill="rgb(230,37,82)"/><path d=" M 289.825 223.9 C 295.25 241.512 295.975 256.921 291.443 258.318 C 286.91 259.712 278.836 246.57 273.41 228.958 C 267.987 211.347 267.262 195.939 271.794 194.542 C 276.327 193.146 284.399 206.291 289.825 223.9 Z " fill="rgb(196,32,74)"/><path d=" M 335.185 256.455 C 311.633 261.681 291.711 262.164 290.682 257.533 C 289.655 252.903 307.913 244.913 331.464 239.688 C 355.014 234.464 374.939 233.982 375.965 238.61 C 376.994 243.24 358.734 251.232 335.185 256.455 Z " fill="rgb(196,32,74)"/><path d=" M 285.203 249.846 C 281.132 253.915 281.132 260.512 285.203 264.579 C 289.274 268.648 295.875 268.648 299.949 264.579 C 304.02 260.512 304.02 253.915 299.949 249.846 C 295.875 245.779 289.274 245.779 285.203 249.846 Z " fill="rgb(196,32,74)"/><path d=" M 288.296 252.937 C 285.932 255.299 285.932 259.128 288.296 261.488 C 290.66 263.85 294.491 263.85 296.855 261.488 C 299.217 259.128 299.217 255.299 296.855 252.937 C 294.491 250.577 290.66 250.577 288.296 252.937 Z " fill="rgb(255,255,255)"/><path d=" M 371.937 336.505 C 328.107 380.296 257.044 380.296 213.215 336.505 C 169.385 292.712 169.385 221.713 213.215 177.92 C 257.044 134.129 328.107 134.129 371.937 177.92 C 415.766 221.713 415.766 292.712 371.937 336.505 Z  M 385.626 164.243 C 334.237 112.898 250.917 112.898 199.525 164.243 C 148.136 215.59 148.136 298.837 199.525 350.184 C 250.917 401.528 334.237 401.528 385.626 350.184 C 437.015 298.837 437.015 215.59 385.626 164.243 Z " fill="rgb(196,32,74)"/><path d=" M 303.004 64.799 C 304.747 58.789 304.124 53.021 299.838 49.242 C 295.493 45.413 288.734 46.834 288.734 46.834 L 288.734 46.834 C 288.732 46.834 283.895 43.864 278.047 48.082 C 272.198 52.301 274.811 57.657 272.064 61.056 C 270.438 63.068 264.498 62.296 264.449 69.963 C 264.436 72.175 266.683 74.141 268.812 74.74 C 272.551 75.793 276.393 75.075 277.622 76.867 C 281.663 82.772 293.26 83.404 295.769 79.317 C 296.547 78.05 306.084 82.842 307.054 73.294 C 307.545 68.456 301.448 70.17 303.004 64.799 Z " fill="rgb(44,40,88)"/><path d=" M 342.968 157.746 L 345.974 161.949 C 345.974 161.949 348.657 165.37 351.857 163.764 C 355.056 162.158 353.638 157.019 353.638 157.019 L 349.963 152.179 L 342.968 157.746 Z " fill="rgb(243,122,80)"/><path d=" M 353.513 156.462 C 353.513 156.462 356.744 156.432 360.254 155.236 C 362.217 154.567 367.351 152.621 368.503 156.133 C 368.673 156.657 368.595 157.391 367.632 158.507 C 366.207 160.156 364.037 161.97 358.943 163.548 C 352.833 165.441 352.339 166.523 350.005 167.1 C 347.586 167.698 346.786 164.324 345.851 161.582 L 345.851 161.582 C 346.276 162.161 347.55 163.586 352.093 162.755 C 353.451 162.507 349.578 158.242 353.513 156.462 Z " fill="rgb(44,40,88)"/><path d=" M 317.518 172.197 L 317.518 175.048 C 317.518 175.048 317.711 179.391 321.249 179.946 C 324.787 180.5 326.621 175.495 326.621 175.495 L 326.492 171.005 L 317.518 172.197 Z " fill="rgb(243,122,80)"/><path d=" M 303.967 101.19 C 302.243 101.175 298.707 107.501 299.007 108.024 C 303.191 112.663 319.527 113.14 319.527 113.14 L 321.489 111.127 C 321.489 111.127 311.78 106.673 303.967 101.19 Z " fill="rgb(196,32,74)"/><path d=" M 288.475 86.698 C 290.063 91.476 297.283 107.438 299.007 108.024 L 303.967 101.19 C 303.967 101.19 296.458 84.431 295.161 81.932 C 292.929 77.601 285.866 78.902 288.475 86.698 Z " fill="rgb(123,146,219)"/><path d=" M 288.921 71.02 C 288.921 71.02 289.61 77.19 289.897 79.459 L 281.84 81.51 C 280.804 74.589 280.726 65.9 280.726 65.9 L 288.921 71.02 Z " fill="rgb(243,122,80)"/><path d=" M 280.46 62.029 C 280.062 69.438 284.457 75.698 290.276 76.011 C 296.096 76.323 301.135 70.569 301.533 63.16 C 301.93 55.75 297.536 49.49 291.717 49.178 C 285.896 48.866 280.857 54.619 280.46 62.029 Z " fill="rgb(243,122,80)"/><path d=" M 298.448 64.221 C 298.543 64.772 299.069 65.141 299.621 65.044 C 300.172 64.948 300.542 64.422 300.444 63.871 C 300.348 63.32 299.823 62.951 299.271 63.048 C 298.72 63.144 298.352 63.669 298.448 64.221 Z " fill="rgb(0,0,0)"/><path d=" M 290.256 63.838 C 290.363 64.435 290.93 64.834 291.528 64.729 C 292.125 64.624 292.523 64.056 292.418 63.459 C 292.314 62.862 291.745 62.463 291.149 62.567 C 290.552 62.672 290.152 63.241 290.256 63.838 Z " fill="rgb(0,0,0)"/><path d=" M 289.353 62.621 C 289.436 62.607 289.514 62.566 289.574 62.498 C 290.437 61.517 291.927 61.719 291.942 61.72 C 292.151 61.75 292.344 61.606 292.376 61.398 C 292.406 61.19 292.263 60.997 292.055 60.966 C 291.976 60.954 290.144 60.697 289 61.993 C 288.862 62.151 288.877 62.392 289.034 62.532 C 289.125 62.612 289.242 62.641 289.353 62.621 Z " fill="rgb(44,40,88)"/><path d=" M 300.984 63.442 C 301.024 63.435 301.065 63.421 301.103 63.4 C 301.288 63.299 301.354 63.066 301.254 62.882 C 300.465 61.448 298.954 61.497 298.89 61.5 C 298.68 61.509 298.516 61.687 298.526 61.898 C 298.535 62.108 298.711 62.27 298.922 62.263 C 298.971 62.261 300.03 62.242 300.584 63.25 C 300.665 63.396 300.829 63.469 300.984 63.442 Z " fill="rgb(44,40,88)"/><path d=" M 297.196 66.148 C 297.566 66.855 297.865 67.559 298.28 68.031 C 298.418 68.19 298.405 68.434 298.254 68.582 C 297.625 69.188 296.247 69.432 295.418 69.526 C 295.297 69.54 295.25 69.373 295.361 69.323 C 296.298 68.891 296.76 68.506 296.972 68.283 C 297.077 68.172 297.121 68.017 297.094 67.867 C 297.032 67.52 296.911 66.817 296.855 66.248 C 296.836 66.051 297.104 65.973 297.196 66.148 Z " fill="rgb(222,98,60)"/><path d=" M 279.633 62.005 C 286.376 63.062 298.284 58.521 300.036 55.352 C 299.991 50.906 293.915 46.874 289.582 47.641 C 285.248 48.407 278.408 56.064 279.633 62.005 Z " fill="rgb(44,40,88)"/><path d=" M 282.937 61.872 C 284.114 63.518 283.976 65.634 282.628 66.598 C 281.28 67.562 279.235 67.009 278.057 65.363 C 276.878 63.716 277.016 61.6 278.364 60.636 C 279.712 59.672 281.759 60.225 282.937 61.872 Z " fill="rgb(243,122,80)"/><path d=" M 280.857 65.676 C 280.923 65.665 280.987 65.638 281.044 65.596 C 281.865 64.988 282.182 64.125 281.891 63.288 C 281.593 62.431 280.747 61.827 279.879 61.854 C 279.635 61.862 279.442 62.066 279.45 62.31 C 279.456 62.555 279.66 62.747 279.905 62.739 C 280.381 62.724 280.885 63.093 281.053 63.578 C 281.217 64.044 281.025 64.508 280.517 64.885 C 280.322 65.03 280.279 65.307 280.426 65.504 C 280.528 65.643 280.698 65.704 280.857 65.676 Z " fill="rgb(222,98,60)"/><path d=" M 296.673 71.931 C 296.86 71.764 296.76 71.455 296.511 71.433 C 295.875 71.378 294.829 71.266 293.851 71.062 C 292.873 70.858 291.87 70.544 291.264 70.341 C 291.026 70.261 290.811 70.503 290.918 70.731 C 291.241 71.432 291.978 72.546 293.477 72.858 C 294.976 73.17 296.096 72.444 296.673 71.931 Z " fill="rgb(255,255,255)"/><path d=" M 291.961 131.167 L 326.285 129.701 C 326.285 129.701 327.978 121.134 326.704 117.738 C 325.431 114.341 293.894 115.041 293.894 115.041 L 291.961 131.167 Z " fill="rgb(63,150,79)"/><path d=" M 281.865 109.171 C 280.936 111.32 277.311 117.718 277.66 122.904 C 278.021 128.257 281.799 132.917 288.19 132.815 C 288.19 132.815 300.238 125.967 297.629 111.939 C 297.629 111.939 291.324 109.476 281.865 109.171 Z " fill="rgb(14,106,65)"/><path d=" M 287.237 134.037 L 317.473 136.889 C 317.473 136.889 327.844 132.512 327.784 128.795 C 327.727 125.078 297.261 114.908 297.261 114.908 C 279.395 109.697 273.438 131.873 287.237 134.037 Z " fill="rgb(14,106,65)"/><path d=" M 327.784 128.795 L 327.178 171.443 C 327.178 171.443 319.631 174.624 316.986 171.467 C 315.738 156.993 309.794 144.17 316.429 135.346 C 325.318 123.528 327.784 128.795 327.784 128.795 Z " fill="rgb(14,106,65)"/><path d=" M 326.632 117.638 L 351.791 152.191 C 351.791 152.191 346.176 159.696 342.256 158.817 C 335.491 150.257 321.8 140.219 321.712 129.446 C 321.595 115.018 326.632 117.638 326.632 117.638 Z " fill="rgb(63,150,79)"/><path d=" M 281.489 78.802 L 289.959 78.708 C 293.843 83.227 297.789 87.11 298.486 90.196 C 299.405 94.26 299.234 116.211 299.234 116.211 C 292.11 118.819 284.148 116.496 278.957 114.567 C 280.26 103.764 271.582 91.621 276.631 83.4 C 277.89 81.349 279.569 80.373 281.489 78.802 Z " fill="rgb(149,166,219)"/><path d=" M 326.842 174.969 C 326.842 174.969 329.489 176.823 333.04 177.892 C 335.025 178.49 340.332 179.891 339.228 183.419 C 339.063 183.945 338.572 184.495 337.139 184.843 C 335.021 185.357 332.2 185.57 327.138 183.891 C 321.066 181.877 320.037 182.471 317.803 181.583 C 315.485 180.662 316.797 177.452 317.631 174.677 L 317.631 174.677 C 317.641 175.396 317.847 177.295 322.027 179.263 C 323.277 179.85 322.605 174.129 326.842 174.969 Z " fill="rgb(44,40,88)"/><path d=" M 298.25 118.008 L 325.68 118.008 L 331.094 100.793 C 331.343 99.998 330.75 99.189 329.917 99.189 L 305.074 99.189 C 304.534 99.189 304.058 99.539 303.897 100.053 L 298.25 118.008 Z " fill="rgb(44,40,88)"/><path d=" M 300.331 118.008 L 326.581 118.008 C 327.283 118.008 327.903 117.553 328.114 116.885 L 333.174 100.793 C 333.424 99.998 332.831 99.189 331.998 99.189 L 307.154 99.189 C 306.616 99.189 306.14 99.539 305.978 100.053 L 300.331 118.008 Z " fill="rgb(73,76,127)"/><path d=" M 316.478 108.938 C 316.176 110.001 316.714 111.086 317.679 111.36 C 318.647 111.634 319.674 110.994 319.976 109.931 C 320.277 108.868 319.74 107.783 318.774 107.509 C 317.809 107.235 316.78 107.874 316.478 108.938 Z " fill="rgb(85,89,148)"/><path d=" M 285.547 115.459 L 300.331 115.459 L 300.331 117.965 L 283.6 117.965 L 283.6 117.405 C 283.6 116.33 284.472 115.459 285.547 115.459 Z " fill="rgb(44,40,88)"/><path d=" M 297.136 116.717 C 295.172 116.7 292.593 117.074 292.652 116.056 C 292.714 115.039 293.726 114.665 293.847 113.443 C 293.956 112.359 290.316 112.637 288.011 116.216 L 287.333 115.841 L 285.386 119.157 L 286.619 119.613 C 288.7 122.116 294.976 123.397 298.667 121.443 C 302.402 119.465 299.1 116.734 297.136 116.717 Z " fill="rgb(243,122,80)"/><path d=" M 273.655 84.654 C 271.233 89.973 262.323 102.052 264.266 108.736 C 265.627 113.416 285.788 120.265 285.788 120.265 L 287.701 115.383 L 273.693 104.96 C 273.693 104.96 281.869 89.017 282.72 86.002 C 284.204 80.729 277.458 76.289 273.655 84.654 Z " fill="rgb(123,146,219)"/><path d=" M 427.112 240.175 L 437.426 235.642 C 438.284 236.754 450.192 239.949 455.324 264.315 C 456.396 269.398 447.8 283.23 442.492 287.448 C 437.185 291.664 434.298 282.456 434.298 282.456 L 441.75 265.187 L 427.112 240.175 Z " fill="rgb(11,87,53)"/><path d=" M 416.421 386.651 C 411.27 393.898 398.616 389.451 399.034 399.256 C 418.277 399.128 426.275 399.256 426.275 399.256 C 426.249 397.004 425.869 391.659 425.424 389.567 L 416.421 386.651 Z " fill="rgb(0,0,0)"/><path d=" M 446.278 386.651 C 441.125 393.898 428.471 389.451 428.89 399.256 C 448.132 399.128 456.13 399.256 456.13 399.256 C 456.104 397.004 455.724 391.659 455.28 389.567 L 446.278 386.651 Z " fill="rgb(0,0,0)"/><path d=" M 428.256 235.782 L 417.628 234.923 L 416.604 224.464 L 425.969 219.474 L 428.256 235.782 Z " fill="rgb(243,122,80)"/><path d=" M 417.205 202.956 C 411.565 202.956 407.254 208.132 406.244 213.683 C 404.42 223.722 410.355 230.199 411.918 230.739 C 414.873 231.764 421.281 228.554 421.281 228.554 C 421.281 228.554 428.647 221.846 428.647 217.665 C 428.647 212.024 422.848 202.956 417.205 202.956 Z " fill="rgb(243,122,80)"/><path d=" M 434.56 212.58 C 437.204 208.517 435.289 205.857 431.694 204.483 C 428.099 203.109 427.682 201.338 426.198 198.966 C 424.791 196.715 418.275 194.316 415.283 197.812 C 410.823 203.025 409.911 198.723 406.016 202.619 C 402.504 206.134 403.354 210.387 404.877 212.352 C 406.359 214.263 409.898 210.843 409.654 213.355 C 409.462 215.313 412.345 215.364 413.283 217.367 C 413.995 218.883 415.247 219.514 415.052 220.471 C 414.669 222.333 413.238 225.072 417.02 227.697 C 419.176 229.192 420.403 227.017 422.812 228.45 C 427.387 231.171 429 227.897 431.498 225.206 C 433.998 222.514 437.202 222.665 434.606 218.147 C 434.509 217.975 432.6 215.592 434.56 212.58 Z " fill="rgb(44,40,88)"/><path d=" M 412.407 216.342 C 411.41 217.786 411.559 219.618 412.739 220.435 C 413.921 221.253 415.687 220.745 416.687 219.302 C 417.684 217.858 417.535 216.026 416.355 215.209 C 415.173 214.391 413.406 214.899 412.407 216.342 Z " fill="rgb(243,122,80)"/><path d=" M 414.263 219.612 C 414.206 219.604 414.15 219.58 414.099 219.544 C 413.381 219.03 413.094 218.285 413.334 217.556 C 413.58 216.808 414.305 216.274 415.058 216.285 C 415.271 216.289 415.439 216.463 415.436 216.674 C 415.432 216.887 415.258 217.057 415.047 217.052 C 414.635 217.046 414.201 217.373 414.063 217.796 C 413.929 218.203 414.101 218.602 414.546 218.921 C 414.718 219.044 414.758 219.285 414.635 219.457 C 414.548 219.578 414.401 219.633 414.263 219.612 Z " fill="rgb(222,98,60)"/><path d=" M 439.972 297.872 C 439.972 297.872 443.716 330.665 446.882 348.304 C 450.173 353.815 456.827 381.567 456.772 390.235 L 442.4 389.204 C 442.4 389.204 433.66 363.509 431.505 355.314 C 428.82 345.107 423.926 322.894 421.238 302.36 L 420.592 296.619 L 439.972 297.872 Z " fill="rgb(32,29,64)"/><path d=" M 407.713 298.335 L 428.26 299.445 L 424.493 349.435 C 426.466 355.424 428.851 382.32 426.874 390.664 L 412.014 389.604 C 412.014 389.604 402.897 322.805 407.713 298.335 Z " fill="rgb(44,40,88)"/><path d=" M 410.557 233.718 C 410.557 233.718 435.008 233.218 438.065 236.097 C 449.454 246.816 440.661 254.463 442.328 299.63 C 439.06 298.492 414.882 302.143 406.788 299.26 C 404.011 268.718 406.881 256.923 406.881 256.923 L 410.557 233.718 Z " fill="rgb(14,106,65)"/><path d=" M 364.57 243.625 C 366.152 243.721 368.106 242.94 368.714 244.356 L 371.835 242.836 L 372.022 240.955 C 369.343 236.662 362.81 235.442 362.164 235.387 C 360.482 235.238 359.702 235.066 359.57 235.289 C 359.44 235.514 359.028 237.011 361.466 237.302 C 364.526 237.67 362.495 240.117 356.287 237.789 C 354.731 237.205 351.806 237.961 352.864 239.099 C 354.032 240.349 357.38 243.187 364.57 243.625 Z " fill="rgb(243,122,80)"/><path d=" M 367.523 244.373 C 368.201 249.089 375.704 270.593 381.954 273.344 C 385.539 270.676 386.561 264.651 385.539 260.425 C 383.621 252.505 372.022 240.955 372.022 240.955 L 367.523 244.373 Z " fill="rgb(14,106,65)"/><path d=" M 410.693 233.743 C 410.693 233.743 417.609 236.563 413.991 245.606 C 410.372 254.653 392.27 278.083 381.621 273.176 C 375.277 260.92 405.306 233.367 410.693 233.743 Z " fill="rgb(14,106,65)"/><path d=" M 414.365 233.89 C 416.234 232.43 422.129 229.904 428.854 230.584 C 429.636 232.045 429.595 234.388 429.595 234.388 L 414.365 233.89 Z " fill="rgb(230,37,82)"/><path d=" M 99.951 220.046 L 99.957 220.046 L 105.15 220.065 L 106.326 232.33 L 100.264 235.529 L 93.801 232.366 L 94.845 220.065 L 99.951 220.046 Z " fill="rgb(243,122,80)"/><path d=" M 89.049 211.813 C 90.301 220.324 96.734 226.426 103.418 225.441 C 110.102 224.459 114.505 216.763 113.253 208.253 C 112.002 199.743 105.569 193.641 98.885 194.624 C 92.201 195.607 87.797 203.303 89.049 211.813 Z " fill="rgb(243,122,80)"/><path d=" M 109.991 210.168 C 110.228 210.772 110.909 211.07 111.514 210.834 C 112.118 210.597 112.416 209.916 112.179 209.312 C 111.943 208.707 111.261 208.409 110.657 208.646 C 110.053 208.882 109.755 209.564 109.991 210.168 Z " fill="rgb(0,0,0)"/><path d=" M 100.598 211.616 C 100.854 212.27 101.591 212.592 102.245 212.337 C 102.9 212.08 103.222 211.343 102.966 210.689 C 102.71 210.034 101.972 209.712 101.318 209.968 C 100.664 210.224 100.342 210.962 100.598 211.616 Z " fill="rgb(0,0,0)"/><path d=" M 107.82 211.577 C 109.074 213.164 110.654 215.094 110.654 215.094 C 110.654 215.094 110.229 216.963 107.86 217.25 C 108.818 216.723 109.736 215.938 109.179 214.646 C 108.622 213.351 107.82 211.577 107.82 211.577 Z " fill="rgb(222,98,60)"/><path d=" M 98.523 210.333 C 98.48 210.323 98.436 210.307 98.394 210.286 C 98.105 210.14 97.99 209.787 98.136 209.498 C 98.536 208.709 99.751 207.326 101.492 207.733 C 101.808 207.812 102.003 208.122 101.929 208.437 C 101.855 208.753 101.54 208.949 101.225 208.875 C 99.936 208.573 99.19 210.013 99.182 210.028 C 99.057 210.275 98.781 210.395 98.523 210.333 Z " fill="rgb(32,29,64)"/><path d=" M 109.372 207.465 C 109.291 207.446 109.213 207.405 109.148 207.343 C 108.954 207.156 108.947 206.846 109.134 206.652 C 109.163 206.621 109.863 205.905 110.848 205.956 C 111.521 205.99 112.137 206.361 112.678 207.056 C 112.844 207.269 112.806 207.576 112.593 207.742 C 112.38 207.908 112.073 207.869 111.907 207.656 C 111.548 207.195 111.175 206.951 110.798 206.931 C 110.262 206.904 109.843 207.324 109.839 207.328 C 109.714 207.458 109.536 207.504 109.372 207.465 Z " fill="rgb(32,29,64)"/><path d=" M 86.191 204.998 C 85.351 196.884 92.783 194.112 92.783 194.112 C 92.783 194.112 91.102 193.547 91.474 191.086 C 92.664 191.794 94.112 192.11 95.489 191.954 C 104.764 190.904 110.631 192.35 109.758 196.003 C 109.448 197.303 115.456 197.778 112.893 206.41 C 112.663 205.805 111.761 201.706 109.943 200.892 C 108.119 200.075 109.236 203.033 105.127 202.628 C 100.981 202.22 98.263 200.54 95.27 202.217 C 92.88 203.733 89.323 214.914 89.891 215.307 C 88.129 214.087 86.56 208.563 86.191 204.998 Z " fill="rgb(32,29,64)"/><path d=" M 113.384 212.907 C 113.384 212.907 112.658 217.552 111.663 218.804 C 111.416 216.812 109.485 218.398 108.062 218.251 C 104.624 217.894 98.877 215.347 97.087 220.203 C 92.706 220.52 90.155 211.332 90.155 211.332 C 87.593 221.015 94.218 227.808 104.862 228.639 C 111.874 229.185 114.75 219.927 113.384 212.907 Z " fill="rgb(32,29,64)"/><path d=" M 91.795 210.224 C 93.28 211.597 93.572 213.695 92.449 214.911 C 91.325 216.125 89.21 215.998 87.725 214.624 C 86.24 213.251 85.947 211.153 87.071 209.938 C 88.195 208.723 90.31 208.851 91.795 210.224 Z " fill="rgb(243,122,80)"/><path d=" M 90.529 214.367 C 90.591 214.342 90.648 214.303 90.695 214.25 C 91.376 213.489 91.511 212.582 91.058 211.821 C 90.593 211.042 89.644 210.623 88.799 210.824 C 88.562 210.88 88.415 211.119 88.472 211.356 C 88.528 211.594 88.767 211.741 89.005 211.684 C 89.467 211.574 90.035 211.833 90.298 212.274 C 90.55 212.696 90.457 213.189 90.036 213.661 C 89.873 213.842 89.889 214.123 90.071 214.284 C 90.2 214.401 90.378 214.427 90.529 214.367 Z " fill="rgb(222,98,60)"/><path d=" M 109.582 220.505 C 109.806 220.243 109.611 219.842 109.267 219.859 C 108.392 219.903 106.948 219.948 105.579 219.854 C 104.21 219.761 102.785 219.523 101.925 219.361 C 101.586 219.297 101.339 219.667 101.525 219.956 C 102.096 220.849 103.31 222.227 105.408 222.369 C 107.507 222.512 108.895 221.311 109.582 220.505 Z " fill="rgb(255,255,255)"/><path d=" M 109.427 380.498 C 114.018 386.833 125.293 382.945 124.92 391.513 C 107.774 391.404 100.648 391.513 100.648 391.513 C 100.671 389.546 101.01 384.875 101.405 383.047 L 109.427 380.498 Z " fill="rgb(0,0,0)"/><path d=" M 83.773 380.664 C 88.365 386.999 99.64 383.111 99.266 391.681 C 82.12 391.57 74.995 391.681 74.995 391.681 C 75.017 389.712 75.356 385.041 75.752 383.213 L 83.773 380.664 Z " fill="rgb(0,0,0)"/><path d=" M 117.364 283.787 C 117.364 283.787 120.148 324.389 119.017 333.414 C 117.886 342.441 113.882 354.015 114.335 383.87 C 108.746 385.271 100.648 383.87 100.648 383.87 C 100.648 383.87 99.447 350.111 105.356 335.032 C 102.954 320.384 95.244 286.836 95.244 286.836 L 117.364 283.787 Z " fill="rgb(44,40,88)"/><path d=" M 106.785 284.897 C 106.785 284.897 101.163 330.478 98.412 339.124 C 95.66 347.771 93.266 354.104 88.284 383.515 C 82.54 383.804 74.244 383.625 74.244 383.625 C 74.244 383.625 74.995 347.184 83.941 338.699 C 84.243 323.847 82.494 285.188 82.494 285.188 L 106.785 284.897 Z " fill="rgb(73,76,127)"/><path d=" M 80.872 233.165 C 80.872 233.165 90.634 229.747 93.89 231.313 C 104.006 236.184 106.326 231.313 106.326 231.313 C 109.559 231.594 119.316 233.165 119.316 233.165 C 119.316 244.063 120.044 254.997 119.846 263.244 C 119.706 270.425 121.075 289.967 121.075 289.967 C 121.075 289.967 110.311 292.791 100.129 292.863 C 89.946 292.797 79.583 290.082 79.583 290.082 C 79.583 290.082 80.127 270.289 80.579 262.931 C 80.432 254.684 80.872 244.033 80.872 233.165 Z " fill="rgb(230,37,82)"/><path d=" M 136.671 249.361 C 132.641 239.745 120.683 233.631 119.316 233.165 L 116.543 245.507 C 122.288 248.904 126.457 252.58 126.457 252.58 C 125.75 256.017 125.869 259.387 123.879 263.735 C 123.879 263.735 125.607 261.349 127.739 262.761 C 129.811 264.132 133.622 261.332 133.622 261.332 C 133.622 261.332 139.749 256.704 136.671 249.361 Z " fill="rgb(196,32,74)"/><path d=" M 134.425 273.659 C 134.495 273.68 134.565 273.693 134.635 273.701 L 134.864 273.701 C 135.284 273.655 135.658 273.368 135.792 272.94 L 146.534 238.304 C 146.556 238.234 146.57 238.163 146.577 238.095 C 146.582 238.049 146.579 238.004 146.579 237.957 C 146.578 237.93 146.581 237.902 146.579 237.874 C 146.576 237.851 146.569 237.827 146.565 237.804 C 146.5 237.411 146.224 237.066 145.817 236.939 C 145.752 236.92 145.684 236.903 145.613 236.896 C 145.534 236.886 145.456 236.888 145.38 236.896 L 118.336 236.896 L 107.499 273.701 L 134.444 273.701 L 134.425 273.659 Z " fill="rgb(118,143,219)"/><path d=" M 118.582 236.939 C 118.006 236.76 117.395 237.081 117.216 237.657 L 106.541 272.207 L 106.516 272.288 C 106.339 272.862 106.659 273.467 107.23 273.648 L 107.231 273.65 C 107.807 273.829 108.419 273.508 108.598 272.932 L 119.301 238.304 C 119.479 237.728 119.158 237.117 118.582 236.939 Z " fill="rgb(67,100,204)"/><path d=" M 139.014 258.913 C 139.115 258.845 139.225 258.802 139.337 258.773 C 139.326 258.754 139.313 258.739 139.302 258.722 C 138.629 257.708 138.674 256.494 139.402 256.011 C 139.522 255.932 139.653 255.879 139.79 255.847 C 139.601 255.097 139.771 254.378 140.291 254.034 C 140.497 253.898 140.737 253.838 140.989 253.84 C 140.751 253.103 140.94 252.327 141.522 251.942 C 142.25 251.459 143.306 251.77 143.88 252.637 C 144.455 253.502 144.33 254.595 143.602 255.078 C 143.417 255.201 143.212 255.271 142.999 255.295 C 143.483 256.241 143.386 257.274 142.727 257.71 C 142.608 257.788 142.476 257.841 142.339 257.873 C 142.528 258.624 142.359 259.342 141.839 259.687 C 141.647 259.812 141.427 259.874 141.194 259.88 C 141.435 260.527 141.282 261.222 140.77 261.562 C 140.155 261.97 139.263 261.707 138.778 260.975 C 138.293 260.242 138.399 259.319 139.014 258.913 Z " fill="rgb(243,122,80)"/><path d=" M 105.766 256.723 L 108.231 255.295 C 108.231 255.295 108.914 251.797 112.873 251.714 C 112.419 253.181 111.766 255.295 111.766 255.295 C 111.766 255.295 113.714 256.808 118.336 254.219 C 122.854 253.203 120.924 256.498 122.421 256.734 C 124.631 257.083 120.811 261.424 116.3 262.089 C 110.463 262.948 109.771 261.753 109.771 261.753 L 106.468 262.908 L 105.766 256.723 Z " fill="rgb(243,122,80)"/><path d=" M 80.554 260.79 C 88.794 260.214 105.249 255.813 105.249 255.813 C 107.499 259.264 106.877 263.845 106.877 263.845 C 94.081 275.064 74.822 278.691 68.913 275.991 C 63.518 273.527 67.351 240.678 80.895 233.157 L 80.554 260.79 Z " fill="rgb(138,40,76)"/><path d=" M 124.093 242.196 C 123.627 243.366 122.426 243.986 121.413 243.583 C 120.4 243.179 119.957 241.901 120.424 240.732 C 120.89 239.562 122.09 238.944 123.104 239.348 C 124.118 239.751 124.561 241.027 124.093 242.196 Z " fill="rgb(67,100,204)"/><path d=" M 127.546 241.801 C 127.267 242.498 126.551 242.868 125.947 242.626 C 125.342 242.386 125.078 241.624 125.356 240.927 C 125.635 240.228 126.351 239.858 126.955 240.1 C 127.56 240.343 127.824 241.104 127.546 241.801 Z " fill="rgb(67,100,204)"/><path d=" M 203.109 346.151 L 191.531 346.582 C 191.531 346.582 189.36 355.669 188.747 363.469 C 188.242 369.889 190.421 380.436 190.417 388.798 C 190.416 390.343 189.336 392.778 189.153 393.949 C 188.493 398.173 200.725 396.011 200.725 396.011 C 199.965 395.624 196.716 391.309 196.61 389.827 C 196.261 384.946 198.285 373.408 200.272 363.441 C 202.035 354.593 203.109 346.151 203.109 346.151 Z " fill="rgb(243,122,80)"/><path d=" M 170.117 341.263 C 170.117 341.263 167.765 355.626 167.151 363.424 C 166.646 369.845 168.089 379.293 168.085 387.654 C 168.084 389.202 167.004 391.636 166.821 392.805 C 166.161 397.032 168.645 393.947 169.817 395.121 C 170.989 396.292 172.671 395.567 172.671 395.567 L 178.998 395.699 C 178.998 395.699 178.764 395.359 177.412 394.844 C 176.779 394.493 174.318 390.169 174.278 388.685 C 173.796 371.139 189.062 342.864 189.062 342.864 L 170.117 341.263 Z " fill="rgb(243,122,80)"/><path d=" M 173.755 394.959 C 171.352 395.178 169.764 393.605 167.856 392.378 C 167.943 393.813 167.844 394.391 167.846 395.826 C 168.851 396.498 169.539 397.308 169.9 397.801 C 170.109 398.084 170.428 398.263 170.779 398.29 L 176.267 398.718 C 176.267 398.718 174.524 394.891 173.755 394.959 Z " fill="rgb(24,22,26)"/><path d=" M 177.278 394.755 C 177.278 394.755 177.138 394.999 176.697 394.861 C 175.376 394.451 173.738 393.124 171.983 391.887 C 170.657 390.954 168.888 389.502 167.741 389.64 C 166.915 389.74 165.567 391.757 165.785 393.686 C 165.877 394.498 166.118 395.114 166.92 396.067 C 167.723 397.019 168.203 400.193 168.203 400.193 L 169.142 400.163 C 169.142 400.163 169.143 394.561 172.096 395.846 C 174.228 396.775 174.706 399.122 176.6 398.662 C 178.147 398.165 179.999 397.193 179.688 396.077 C 179.513 395.448 178.886 395.244 177.278 394.755 Z " fill="rgb(7,12,79)"/><path d=" M 196.087 396.103 C 193.683 396.322 192.095 394.746 190.188 393.52 C 190.275 394.955 190.176 395.535 190.178 396.968 C 191.183 397.64 191.871 398.452 192.233 398.943 C 192.442 399.228 192.76 399.404 193.111 399.432 L 199.085 399.787 C 199.085 399.787 196.856 396.033 196.087 396.103 Z " fill="rgb(24,22,26)"/><path d=" M 201.951 396.456 C 200.917 396.111 200.676 395.982 200.676 395.982 C 199.207 396.468 196.378 394.483 194.315 393.029 C 192.99 392.095 191.169 390.611 190.022 390.75 C 189.196 390.849 188.004 393.532 187.825 394.757 C 187.705 395.565 188.001 396.407 188.458 397.531 C 189.144 399.222 189.961 401.388 189.961 401.388 L 190.9 401.358 C 190.9 401.358 190.901 395.756 193.854 397.04 C 195.986 397.969 196.262 399.766 198.932 399.806 C 201.776 399.847 206.267 397.895 201.951 396.456 Z " fill="rgb(7,12,79)"/><path d=" M 198.185 215.456 C 196.924 212.264 194.813 210.896 194.813 210.896 L 194.436 210.736 L 177.936 212.866 C 177.936 212.866 183.007 225.835 183.293 226.175 C 183.579 226.517 192.208 236.339 192.208 236.339 C 192.208 236.339 196.79 237.919 198.906 234.128 C 202.761 227.221 199.445 218.649 198.185 215.456 Z " fill="rgb(243,122,80)"/><path d=" M 180.941 250.162 L 170.093 251.731 C 169.718 252.669 165.018 268.869 166.145 272.436 C 167.271 276.004 175.079 284.061 179.585 285.938 C 184.092 287.816 184.279 280.868 184.279 280.868 L 175.721 270.372 L 180.941 250.162 Z " fill="rgb(243,122,80)"/><path d=" M 213.3 294.251 C 211.174 281.072 205.46 272.804 205.46 272.804 C 204.465 266.024 208.727 252.792 206.781 248.583 L 201.419 238.097 L 194.299 236.418 L 175.449 238.521 C 175.449 238.521 182.46 273.931 182.534 273.988 C 174.548 283.898 170.722 302.409 168.294 309.303 C 164.627 319.716 154.799 345.555 154.799 345.555 C 163.175 342.205 169.353 352.611 178.925 353.808 C 188.497 355.005 197.442 353.49 201.259 352.922 C 207.308 352.02 212.056 356.028 212.056 356.028 C 212.533 355.212 216.44 313.729 213.3 294.251 Z " fill="rgb(63,150,79)"/><path d=" M 238.446 218.719 C 237.343 220.033 236.49 221.598 234.22 221.557 C 234.22 221.557 232.272 226.679 230.233 230.684 C 230.233 230.684 227.937 223.411 227.94 223.407 C 228.941 221.874 230.55 218.845 231.086 216.959 C 231.226 216.468 231.339 215.97 231.473 215.477 C 231.775 214.267 231.983 213.007 233.242 211.927 C 235.306 210.155 237.643 206.755 238.121 206.662 C 238.954 206.462 238.659 208.938 237.375 210.172 C 235.323 212.142 236.037 213.011 236.037 213.011 C 236.037 213.011 238.197 213.523 238.595 214.535 C 238.776 214.994 239.734 217.182 238.446 218.719 Z " fill="rgb(243,122,80)"/><path d=" M 230.189 219.448 L 219.689 238.172 C 219.689 238.172 205.789 238.087 201.846 237.804 C 196.457 237.419 195.09 242.505 195.09 242.505 C 195.008 245.015 195.598 251.427 205.811 251.536 C 214.476 251.61 221.1 249.584 226.005 246.395 C 230.907 243.208 234.294 221.868 234.22 221.557 C 232.089 218.84 230.189 219.448 230.189 219.448 Z " fill="rgb(243,122,80)"/><path d=" M 196.445 207.515 C 191.721 207.298 186.862 201.217 179.137 204.569 C 163.744 211.246 168.49 224.87 161.325 228.452 C 152.722 232.753 132.021 235.102 141.44 247.971 C 136.53 248.343 130.829 260.206 143.85 263.131 C 141.893 266.607 147.284 276.629 161.034 269.955 C 165.025 280.536 176.167 271.052 180.95 263.401 C 183.638 259.1 185.516 253.638 184.982 249.958 C 194.66 258.83 197.478 232.077 197.04 222.44 C 199.679 222.693 210.827 208.173 196.445 207.515 Z " fill="rgb(7,12,79)"/><path d=" M 216.315 238.034 C 216.315 238.034 216.938 243.572 217.006 251.047 C 212.576 252.086 194.371 254.786 194.787 243.225 C 195.133 235.336 208.354 237.343 216.315 238.034 Z " fill="rgb(14,106,65)"/><path d=" M 161.517 184.278 C 160.797 184.278 160.095 183.913 159.696 183.253 C 153.545 173.091 151.623 163.239 153.982 153.968 C 157.703 139.349 170.69 131.63 171.241 131.309 C 172.256 130.717 173.557 131.06 174.149 132.074 C 174.74 133.088 174.398 134.389 173.385 134.981 C 173.204 135.088 161.343 142.209 158.093 155.057 C 156.041 163.17 157.804 171.916 163.333 181.051 C 163.941 182.055 163.62 183.363 162.615 183.971 C 162.271 184.179 161.891 184.278 161.517 184.278 Z " fill="rgb(255,255,255)"/><path d=" M 426.893 181.218 C 427.612 181.18 428.294 180.779 428.658 180.099 C 434.266 169.628 435.667 159.688 432.825 150.555 C 428.341 136.151 414.967 129.125 414.399 128.833 C 413.355 128.296 412.073 128.706 411.535 129.75 C 410.997 130.793 411.408 132.075 412.452 132.613 C 412.637 132.71 424.857 139.198 428.777 151.857 C 431.252 159.852 429.953 168.678 424.91 178.091 C 424.355 179.126 424.746 180.414 425.781 180.969 C 426.134 181.159 426.519 181.238 426.893 181.218 Z " fill="rgb(255,255,255)"/></g></g></g></svg>